<svg width="47" height="53" viewBox="0 0 47 53" fill="none" xmlns="http://www.w3.org/2000/svg">
<mask id="mask0_380_655" style="mask-type:luminance" maskUnits="userSpaceOnUse" x="2" y="8" width="43" height="43">
<path d="M2.46289 8.52344H44.0087V50.0693H2.46289V8.52344Z" fill="white"/>
</mask>
<g mask="url(#mask0_380_655)">
<mask id="mask1_380_655" style="mask-type:luminance" maskUnits="userSpaceOnUse" x="2" y="8" width="43" height="43">
<path d="M23.2362 8.52344C11.7639 8.52344 2.46289 17.8236 2.46289 29.2959C2.46289 40.7691 11.7639 50.0693 23.2362 50.0693C34.7085 50.0693 44.0087 40.7691 44.0087 29.2959C44.0087 17.8236 34.7085 8.52344 23.2362 8.52344Z" fill="white"/>
</mask>
<g mask="url(#mask1_380_655)">
<path d="M2.46289 8.52344H44.0087V50.0693H2.46289V8.52344Z" fill="white"/>
</g>
</g>
<mask id="mask2_380_655" style="mask-type:luminance" maskUnits="userSpaceOnUse" x="0" y="6" width="47" height="47">
<path d="M0.5 6.14551H46.6011V52.2466H0.5V6.14551Z" fill="white"/>
</mask>
<g mask="url(#mask2_380_655)">
<mask id="mask3_380_655" style="mask-type:luminance" maskUnits="userSpaceOnUse" x="0" y="6" width="47" height="47">
<path d="M23.5505 6.14551C10.82 6.14551 0.5 16.4656 0.5 29.1961C0.5 41.9266 10.82 52.2466 23.5505 52.2466C36.281 52.2466 46.6011 41.9266 46.6011 29.1961C46.6011 16.4656 36.281 6.14551 23.5505 6.14551Z" fill="white"/>
</mask>
<g mask="url(#mask3_380_655)">
<path d="M0.5 6.14551H46.6011V52.2466H0.5V6.14551Z" fill="#FF5F01"/>
</g>
</g>
<mask id="mask4_380_655" style="mask-type:luminance" maskUnits="userSpaceOnUse" x="5" y="10" width="38" height="38">
<path d="M5.05566 10.7012H42.0453V47.6909H5.05566V10.7012Z" fill="white"/>
</mask>
<g mask="url(#mask4_380_655)">
<mask id="mask5_380_655" style="mask-type:luminance" maskUnits="userSpaceOnUse" x="5" y="10" width="38" height="38">
<path d="M23.5509 10.7012C13.336 10.7012 5.05566 18.9815 5.05566 29.1956C5.05566 39.4106 13.336 47.6909 23.5509 47.6909C33.7651 47.6909 42.0453 39.4106 42.0453 29.1956C42.0453 18.9815 33.7651 10.7012 23.5509 10.7012Z" fill="white"/>
</mask>
<g mask="url(#mask5_380_655)">
<path d="M5.05566 10.7012H42.0453V47.6909H5.05566V10.7012Z" fill="white"/>
</g>
</g>
<mask id="mask6_380_655" style="mask-type:luminance" maskUnits="userSpaceOnUse" x="11" y="1" width="25" height="22">
<path d="M11.2754 1.03906H35.9053V22.5641H11.2754V1.03906Z" fill="white"/>
</mask>
<g mask="url(#mask6_380_655)">
<mask id="mask7_380_655" style="mask-type:luminance" maskUnits="userSpaceOnUse" x="11" y="1" width="25" height="22">
<path d="M23.5754 1.03906L35.8754 22.5641H11.2754L23.5754 1.03906Z" fill="white"/>
</mask>
<g mask="url(#mask7_380_655)">
<path d="M11.2754 1.03906H35.9113V22.5641H11.2754V1.03906Z" fill="#FF5F01"/>
</g>
</g>
<mask id="mask8_380_655" style="mask-type:luminance" maskUnits="userSpaceOnUse" x="20" y="44" width="8" height="8">
<path d="M20.0234 44.1641H27.7929V51.2169H20.0234V44.1641Z" fill="white"/>
</mask>
<g mask="url(#mask8_380_655)">
<mask id="mask9_380_655" style="mask-type:luminance" maskUnits="userSpaceOnUse" x="20" y="44" width="8" height="8">
<path d="M23.8971 44.1641C21.7574 44.1641 20.0234 45.7434 20.0234 47.6909C20.0234 49.6384 21.7574 51.2169 23.8971 51.2169C26.0359 51.2169 27.7699 49.6384 27.7699 47.6909C27.7699 45.7434 26.0359 44.1641 23.8971 44.1641Z" fill="white"/>
</mask>
<g mask="url(#mask9_380_655)">
<path d="M20.0234 44.1641H27.7656V51.2169H20.0234V44.1641Z" fill="white"/>
</g>
</g>
<mask id="mask10_380_655" style="mask-type:luminance" maskUnits="userSpaceOnUse" x="21" y="45" width="6" height="6">
<path d="M21.5195 45.313H26.2755V50.069H21.5195V45.313Z" fill="white"/>
</mask>
<g mask="url(#mask10_380_655)">
<mask id="mask11_380_655" style="mask-type:luminance" maskUnits="userSpaceOnUse" x="21" y="45" width="6" height="6">
<path d="M23.8975 45.313C22.5838 45.313 21.5195 46.3773 21.5195 47.691C21.5195 49.0038 22.5838 50.069 23.8975 50.069C25.2104 50.069 26.2755 49.0038 26.2755 47.691C26.2755 46.3773 25.2104 45.313 23.8975 45.313Z" fill="white"/>
</mask>
<g mask="url(#mask11_380_655)">
<path d="M21.5195 45.313H26.2755V50.069H21.5195V45.313Z" fill="#FF5F01"/>
</g>
</g>
<mask id="mask12_380_655" style="mask-type:luminance" maskUnits="userSpaceOnUse" x="10" y="0" width="27" height="17">
<path d="M10.541 0.365234H36.6478V16.0904H10.541V0.365234Z" fill="white"/>
</mask>
<g mask="url(#mask12_380_655)">
<mask id="mask13_380_655" style="mask-type:luminance" maskUnits="userSpaceOnUse" x="10" y="0" width="27" height="17">
<path d="M23.5756 0.365234L36.6102 16.0904H10.541L23.5756 0.365234Z" fill="white"/>
</mask>
<g mask="url(#mask13_380_655)">
<path d="M10.541 0.365234H36.5863V16.0904H10.541V0.365234Z" fill="white"/>
</g>
</g>
<mask id="mask14_380_655" style="mask-type:luminance" maskUnits="userSpaceOnUse" x="10" y="10" width="27" height="13">
<path d="M10.541 10.7012H36.6307V22.5638H10.541V10.7012Z" fill="white"/>
</mask>
<g mask="url(#mask14_380_655)">
<mask id="mask15_380_655" style="mask-type:luminance" maskUnits="userSpaceOnUse" x="10" y="10" width="27" height="13">
<path d="M23.5756 10.7012L36.6102 22.5638H10.541L23.5756 10.7012Z" fill="white"/>
</mask>
<g mask="url(#mask15_380_655)">
<path d="M10.541 10.7012H36.6307V22.5638H10.541V10.7012Z" fill="#FF5F01"/>
</g>
</g>
<mask id="mask16_380_655" style="mask-type:luminance" maskUnits="userSpaceOnUse" x="8" y="12" width="31" height="13">
<path d="M8.68848 12.6328H38.434V24.3836H8.68848V12.6328Z" fill="white"/>
</mask>
<g mask="url(#mask16_380_655)">
<mask id="mask17_380_655" style="mask-type:luminance" maskUnits="userSpaceOnUse" x="8" y="12" width="31" height="13">
<path d="M23.551 12.6328L38.4126 24.3836H8.68848L23.551 12.6328Z" fill="white"/>
</mask>
<g mask="url(#mask17_380_655)">
<path d="M8.68848 12.6328H38.434V24.3836H8.68848V12.6328Z" fill="white"/>
</g>
</g>
<mask id="mask18_380_655" style="mask-type:luminance" maskUnits="userSpaceOnUse" x="19" y="20" width="5" height="5">
<path d="M19.8027 20.936H23.2365V24.1921H19.8027V20.936Z" fill="white"/>
</mask>
<g mask="url(#mask18_380_655)">
<path d="M19.8027 20.936H23.2373V24.1921H19.8027V20.936Z" fill="#FF5F01"/>
</g>
<mask id="mask19_380_655" style="mask-type:luminance" maskUnits="userSpaceOnUse" x="23" y="20" width="5" height="5">
<path d="M23.8975 20.936H27.3312V24.1921H23.8975V20.936Z" fill="white"/>
</mask>
<g mask="url(#mask19_380_655)">
<path d="M23.8975 20.936H27.3321V24.1921H23.8975V20.936Z" fill="#FF5F01"/>
</g>
<mask id="mask20_380_655" style="mask-type:luminance" maskUnits="userSpaceOnUse" x="19" y="17" width="5" height="4">
<path d="M19.8027 17.2666H23.2365V20.5235H19.8027V17.2666Z" fill="white"/>
</mask>
<g mask="url(#mask20_380_655)">
<path d="M19.8027 17.2666H23.2373V20.5235H19.8027V17.2666Z" fill="#FF5F01"/>
</g>
<mask id="mask21_380_655" style="mask-type:luminance" maskUnits="userSpaceOnUse" x="23" y="17" width="5" height="4">
<path d="M23.8975 17.2666H27.3312V20.5235H23.8975V17.2666Z" fill="white"/>
</mask>
<g mask="url(#mask21_380_655)">
<path d="M23.8975 17.2666H27.3321V20.5235H23.8975V17.2666Z" fill="#FF5F01"/>
</g>
<mask id="mask22_380_655" style="mask-type:luminance" maskUnits="userSpaceOnUse" x="18" y="15" width="6" height="5">
<path d="M18.8496 15.6455H23.4416V19.3628H18.8496V15.6455Z" fill="white"/>
</mask>
<g mask="url(#mask22_380_655)">
<mask id="mask23_380_655" style="mask-type:luminance" maskUnits="userSpaceOnUse" x="18" y="15" width="6" height="5">
<path d="M18.9131 17.6628L22.3238 15.7153L23.2369 17.3135L19.8253 19.261L18.9131 17.6628Z" fill="white"/>
</mask>
<g mask="url(#mask23_380_655)">
<path d="M18.9131 17.6631L22.3212 15.7173L23.2335 17.3154L19.8253 19.2612L18.9131 17.6631Z" fill="white"/>
</g>
</g>
<mask id="mask24_380_655" style="mask-type:luminance" maskUnits="userSpaceOnUse" x="23" y="15" width="6" height="5">
<path d="M23.8789 15.4268H28.2522V19.1441H23.8789V15.4268Z" fill="white"/>
</mask>
<g mask="url(#mask24_380_655)">
<mask id="mask25_380_655" style="mask-type:luminance" maskUnits="userSpaceOnUse" x="23" y="15" width="6" height="4">
<path d="M24.6729 15.6045L28.2348 17.2607L27.4584 18.9298L23.8965 17.2735L24.6729 15.6045Z" fill="white"/>
</mask>
<g mask="url(#mask25_380_655)">
<path d="M24.6729 15.6045L28.2314 17.2599L27.4558 18.9281L23.8965 17.2735L24.6729 15.6045Z" fill="white"/>
</g>
</g>
<mask id="mask26_380_655" style="mask-type:luminance" maskUnits="userSpaceOnUse" x="23" y="41" width="2" height="10">
<path d="M23.4736 41.1416H24.321V50.0694H23.4736V41.1416Z" fill="white"/>
</mask>
<g mask="url(#mask26_380_655)">
<path d="M23.4736 41.1416H24.321V50.0694H23.4736V41.1416Z" fill="white"/>
</g>
<mask id="mask27_380_655" style="mask-type:luminance" maskUnits="userSpaceOnUse" x="21" y="47" width="6" height="2">
<path d="M21.2588 47.2637H26.5316V48.1161H21.2588V47.2637Z" fill="white"/>
</mask>
<g mask="url(#mask27_380_655)">
<path d="M26.5314 47.2637V48.1161H21.2578V47.2637H26.5314Z" fill="white"/>
</g>
<path d="M15.061 37.9858C15.061 37.3691 15.1276 36.8497 15.2626 36.4278C15.3967 36.0041 15.6162 35.618 15.922 35.2695C16.2295 34.921 16.6617 34.5452 17.2203 34.142L18.71 33.0658C19.1174 32.7745 19.4343 32.5225 19.6598 32.3107C19.887 32.0971 20.0578 31.8725 20.1723 31.6376C20.2885 31.4036 20.3466 31.1353 20.3466 30.8347C20.3466 30.382 20.2082 30.0318 19.9331 29.7858C19.6572 29.5381 19.2447 29.4133 18.6963 29.4133C18.165 29.4133 17.6935 29.5398 17.2818 29.7926C16.8692 30.0437 16.5284 30.3888 16.2602 30.8278L16.1133 30.8654L14.9004 29.5056C15.2967 28.9162 15.8135 28.4413 16.4516 28.0808C17.0913 27.7212 17.8678 27.541 18.7817 27.541C19.6154 27.541 20.3132 27.6794 20.8761 27.9544C21.4382 28.2303 21.8567 28.6062 22.1301 29.0819C22.4034 29.5586 22.5401 30.1035 22.5401 30.7185C22.5401 31.2498 22.4282 31.7333 22.2052 32.1706C21.984 32.6079 21.6773 33.0137 21.2861 33.3869C20.8941 33.7585 20.3918 34.1582 19.7794 34.5862L18.4606 35.5087C18.0617 35.794 17.7841 36.0477 17.6269 36.2706C17.4697 36.4918 17.3911 36.7421 17.3911 37.0223H22.4307V38.8707H15.061V37.9858Z" fill="#FF5F01"/>
<path d="M30.049 38.8707H27.9341V36.4415H22.8467V34.6614L27.2234 27.7017H30.049V34.6614H31.7676V36.4415H30.049V38.8707ZM25.1085 34.5008L25.1768 34.6614H27.9341V30.3393L27.7564 30.3086L25.1085 34.5008Z" fill="#FF5F01"/>
</svg>
