<svg width="82" height="82" viewBox="0 0 82 82" fill="none" xmlns="http://www.w3.org/2000/svg">
<mask id="mask0_380_2977" style="mask-type:luminance" maskUnits="userSpaceOnUse" x="17" y="21" width="43" height="43">
<path d="M17.5068 21.5233H59.0526V63.0691H17.5068V21.5233Z" fill="white"/>
</mask>
<g mask="url(#mask0_380_2977)">
<mask id="mask1_380_2977" style="mask-type:luminance" maskUnits="userSpaceOnUse" x="17" y="21" width="43" height="43">
<path d="M38.2802 21.5233C26.8079 21.5233 17.5068 30.8235 17.5068 42.2958C17.5068 53.769 26.8079 63.0691 38.2802 63.0691C49.7525 63.0691 59.0526 53.769 59.0526 42.2958C59.0526 30.8235 49.7525 21.5233 38.2802 21.5233Z" fill="white"/>
</mask>
<g mask="url(#mask1_380_2977)">
<path d="M17.5068 21.5233H59.0526V63.0691H17.5068V21.5233Z" fill="#0F0C36"/>
</g>
</g>
<mask id="mask2_380_2977" style="mask-type:luminance" maskUnits="userSpaceOnUse" x="15" y="19" width="47" height="47">
<path d="M15.5439 19.1453H61.645V65.2464H15.5439V19.1453Z" fill="white"/>
</mask>
<g mask="url(#mask2_380_2977)">
<mask id="mask3_380_2977" style="mask-type:luminance" maskUnits="userSpaceOnUse" x="15" y="19" width="47" height="47">
<path d="M38.5945 19.1453C25.864 19.1453 15.5439 29.4653 15.5439 42.1958C15.5439 54.9263 25.864 65.2464 38.5945 65.2464C51.325 65.2464 61.645 54.9263 61.645 42.1958C61.645 29.4653 51.325 19.1453 38.5945 19.1453Z" fill="white"/>
</mask>
<g mask="url(#mask3_380_2977)">
<path d="M15.5439 19.1453H61.645V65.2464H15.5439V19.1453Z" fill="#E9E9E9"/>
</g>
</g>
<mask id="mask4_380_2977" style="mask-type:luminance" maskUnits="userSpaceOnUse" x="20" y="23" width="38" height="38">
<path d="M20.0996 23.7014H57.0893V60.6911H20.0996V23.7014Z" fill="white"/>
</mask>
<g mask="url(#mask4_380_2977)">
<mask id="mask5_380_2977" style="mask-type:luminance" maskUnits="userSpaceOnUse" x="20" y="23" width="38" height="38">
<path d="M38.5949 23.7014C28.3799 23.7014 20.0996 31.9817 20.0996 42.1958C20.0996 52.4108 28.3799 60.6911 38.5949 60.6911C48.809 60.6911 57.0893 52.4108 57.0893 42.1958C57.0893 31.9817 48.809 23.7014 38.5949 23.7014Z" fill="white"/>
</mask>
<g mask="url(#mask5_380_2977)">
<path d="M20.0996 23.7014H57.0893V60.6911H20.0996V23.7014Z" fill="#0F0C36"/>
</g>
</g>
<mask id="mask6_380_2977" style="mask-type:luminance" maskUnits="userSpaceOnUse" x="26" y="14" width="25" height="22">
<path d="M26.3193 14.0391H50.9492V35.5641H26.3193V14.0391Z" fill="white"/>
</mask>
<g mask="url(#mask6_380_2977)">
<mask id="mask7_380_2977" style="mask-type:luminance" maskUnits="userSpaceOnUse" x="26" y="14" width="25" height="22">
<path d="M38.6193 14.0391L50.9193 35.5641H26.3193L38.6193 14.0391Z" fill="white"/>
</mask>
<g mask="url(#mask7_380_2977)">
<path d="M26.3193 14.0391H50.9552V35.5641H26.3193V14.0391Z" fill="#E9E9E9"/>
</g>
</g>
<mask id="mask8_380_2977" style="mask-type:luminance" maskUnits="userSpaceOnUse" x="35" y="57" width="8" height="8">
<path d="M35.0674 57.1641H42.8369V64.2169H35.0674V57.1641Z" fill="white"/>
</mask>
<g mask="url(#mask8_380_2977)">
<mask id="mask9_380_2977" style="mask-type:luminance" maskUnits="userSpaceOnUse" x="35" y="57" width="8" height="8">
<path d="M38.941 57.1641C36.8013 57.1641 35.0674 58.7434 35.0674 60.6909C35.0674 62.6384 36.8013 64.2169 38.941 64.2169C41.0799 64.2169 42.8138 62.6384 42.8138 60.6909C42.8138 58.7434 41.0799 57.1641 38.941 57.1641Z" fill="white"/>
</mask>
<g mask="url(#mask9_380_2977)">
<path d="M35.0674 57.1641H42.8096V64.2169H35.0674V57.1641Z" fill="#0F0C36"/>
</g>
</g>
<mask id="mask10_380_2977" style="mask-type:luminance" maskUnits="userSpaceOnUse" x="36" y="58" width="6" height="6">
<path d="M36.5635 58.3131H41.3195V63.0691H36.5635V58.3131Z" fill="white"/>
</mask>
<g mask="url(#mask10_380_2977)">
<mask id="mask11_380_2977" style="mask-type:luminance" maskUnits="userSpaceOnUse" x="36" y="58" width="6" height="6">
<path d="M38.9415 58.3131C37.6278 58.3131 36.5635 59.3774 36.5635 60.6911C36.5635 62.004 37.6278 63.0691 38.9415 63.0691C40.2543 63.0691 41.3195 62.004 41.3195 60.6911C41.3195 59.3774 40.2543 58.3131 38.9415 58.3131Z" fill="white"/>
</mask>
<g mask="url(#mask11_380_2977)">
<path d="M36.5635 58.3131H41.3195V63.0691H36.5635V58.3131Z" fill="#E9E9E9"/>
</g>
</g>
<mask id="mask12_380_2977" style="mask-type:luminance" maskUnits="userSpaceOnUse" x="25" y="13" width="27" height="17">
<path d="M25.585 13.3651H51.6917V29.0903H25.585V13.3651Z" fill="white"/>
</mask>
<g mask="url(#mask12_380_2977)">
<mask id="mask13_380_2977" style="mask-type:luminance" maskUnits="userSpaceOnUse" x="25" y="13" width="27" height="17">
<path d="M38.6195 13.3651L51.6541 29.0903H25.585L38.6195 13.3651Z" fill="white"/>
</mask>
<g mask="url(#mask13_380_2977)">
<path d="M25.585 13.3651H51.6302V29.0903H25.585V13.3651Z" fill="#0F0C36"/>
</g>
</g>
<mask id="mask14_380_2977" style="mask-type:luminance" maskUnits="userSpaceOnUse" x="25" y="23" width="27" height="13">
<path d="M25.585 23.7014H51.6746V35.5641H25.585V23.7014Z" fill="white"/>
</mask>
<g mask="url(#mask14_380_2977)">
<mask id="mask15_380_2977" style="mask-type:luminance" maskUnits="userSpaceOnUse" x="25" y="23" width="27" height="13">
<path d="M38.6195 23.7014L51.6541 35.5641H25.585L38.6195 23.7014Z" fill="white"/>
</mask>
<g mask="url(#mask15_380_2977)">
<path d="M25.585 23.7014H51.6746V35.5641H25.585V23.7014Z" fill="#E9E9E9"/>
</g>
</g>
<mask id="mask16_380_2977" style="mask-type:luminance" maskUnits="userSpaceOnUse" x="23" y="25" width="31" height="13">
<path d="M23.7324 25.6328H53.4779V37.3836H23.7324V25.6328Z" fill="white"/>
</mask>
<g mask="url(#mask16_380_2977)">
<mask id="mask17_380_2977" style="mask-type:luminance" maskUnits="userSpaceOnUse" x="23" y="25" width="31" height="13">
<path d="M38.5949 25.6328L53.4566 37.3836H23.7324L38.5949 25.6328Z" fill="white"/>
</mask>
<g mask="url(#mask17_380_2977)">
<path d="M23.7324 25.6328H53.4779V37.3836H23.7324V25.6328Z" fill="#0F0C36"/>
</g>
</g>
<mask id="mask18_380_2977" style="mask-type:luminance" maskUnits="userSpaceOnUse" x="34" y="33" width="5" height="5">
<path d="M34.8467 33.936H38.2804V37.1921H34.8467V33.936Z" fill="white"/>
</mask>
<g mask="url(#mask18_380_2977)">
<path d="M34.8467 33.936H38.2813V37.1921H34.8467V33.936Z" fill="#E9E9E9"/>
</g>
<mask id="mask19_380_2977" style="mask-type:luminance" maskUnits="userSpaceOnUse" x="38" y="33" width="5" height="5">
<path d="M38.9414 33.936H42.3752V37.1921H38.9414V33.936Z" fill="white"/>
</mask>
<g mask="url(#mask19_380_2977)">
<path d="M38.9414 33.936H42.376V37.1921H38.9414V33.936Z" fill="#E9E9E9"/>
</g>
<mask id="mask20_380_2977" style="mask-type:luminance" maskUnits="userSpaceOnUse" x="34" y="30" width="5" height="4">
<path d="M34.8467 30.2666H38.2804V33.5235H34.8467V30.2666Z" fill="white"/>
</mask>
<g mask="url(#mask20_380_2977)">
<path d="M34.8467 30.2666H38.2813V33.5235H34.8467V30.2666Z" fill="#E9E9E9"/>
</g>
<mask id="mask21_380_2977" style="mask-type:luminance" maskUnits="userSpaceOnUse" x="38" y="30" width="5" height="4">
<path d="M38.9414 30.2666H42.3752V33.5235H38.9414V30.2666Z" fill="white"/>
</mask>
<g mask="url(#mask21_380_2977)">
<path d="M38.9414 30.2666H42.376V33.5235H38.9414V30.2666Z" fill="#E9E9E9"/>
</g>
<mask id="mask22_380_2977" style="mask-type:luminance" maskUnits="userSpaceOnUse" x="33" y="28" width="6" height="5">
<path d="M33.8936 28.6454H38.4856V32.3627H33.8936V28.6454Z" fill="white"/>
</mask>
<g mask="url(#mask22_380_2977)">
<mask id="mask23_380_2977" style="mask-type:luminance" maskUnits="userSpaceOnUse" x="33" y="28" width="6" height="5">
<path d="M33.957 30.6627L37.3677 28.7152L38.2808 30.3134L34.8693 32.2609L33.957 30.6627Z" fill="white"/>
</mask>
<g mask="url(#mask23_380_2977)">
<path d="M33.957 30.663L37.3652 28.7172L38.2774 30.3153L34.8693 32.2611L33.957 30.663Z" fill="#0F0C36"/>
</g>
</g>
<mask id="mask24_380_2977" style="mask-type:luminance" maskUnits="userSpaceOnUse" x="38" y="28" width="6" height="5">
<path d="M38.9229 28.4266H43.2962V32.144H38.9229V28.4266Z" fill="white"/>
</mask>
<g mask="url(#mask24_380_2977)">
<mask id="mask25_380_2977" style="mask-type:luminance" maskUnits="userSpaceOnUse" x="38" y="28" width="6" height="4">
<path d="M39.7169 28.6044L43.2787 30.2606L42.5023 31.9296L38.9404 30.2734L39.7169 28.6044Z" fill="white"/>
</mask>
<g mask="url(#mask25_380_2977)">
<path d="M39.7169 28.6044L43.2753 30.2597L42.4997 31.9279L38.9404 30.2734L39.7169 28.6044Z" fill="#0F0C36"/>
</g>
</g>
<mask id="mask26_380_2977" style="mask-type:luminance" maskUnits="userSpaceOnUse" x="38" y="54" width="2" height="10">
<path d="M38.5176 54.1414H39.3649V63.0691H38.5176V54.1414Z" fill="white"/>
</mask>
<g mask="url(#mask26_380_2977)">
<path d="M38.5176 54.1414H39.3649V63.0691H38.5176V54.1414Z" fill="#0F0C36"/>
</g>
<mask id="mask27_380_2977" style="mask-type:luminance" maskUnits="userSpaceOnUse" x="36" y="60" width="6" height="2">
<path d="M36.3027 60.264H41.5755V61.1165H36.3027V60.264Z" fill="white"/>
</mask>
<g mask="url(#mask27_380_2977)">
<path d="M41.5754 60.264V61.1165H36.3018V60.264H41.5754Z" fill="#0F0C36"/>
</g>
<path d="M30.1049 50.9858C30.1049 50.3691 30.1715 49.8497 30.3065 49.4278C30.4406 49.0041 30.6601 48.618 30.9659 48.2695C31.2734 47.921 31.7056 47.5452 32.2643 47.142L33.7539 46.0658C34.1614 45.7745 34.4783 45.5225 34.7038 45.3107C34.931 45.0971 35.1018 44.8725 35.2163 44.6376C35.3324 44.4036 35.3905 44.1353 35.3905 43.8347C35.3905 43.382 35.2521 43.0318 34.9771 42.7858C34.7012 42.5381 34.2886 42.4133 33.7403 42.4133C33.209 42.4133 32.7375 42.5398 32.3258 42.7926C31.9132 43.0437 31.5724 43.3888 31.3042 43.8278L31.1573 43.8654L29.9443 42.5056C30.3407 41.9162 30.8574 41.4413 31.4955 41.0808C32.1353 40.7212 32.9117 40.541 33.8257 40.541C34.6593 40.541 35.3572 40.6794 35.9201 40.9544C36.4821 41.2303 36.9007 41.6062 37.174 42.0819C37.4473 42.5586 37.584 43.1035 37.584 43.7185C37.584 44.2498 37.4721 44.7333 37.2492 45.1706C37.0279 45.6079 36.7213 46.0137 36.3301 46.3869C35.938 46.7585 35.4358 47.1582 34.8233 47.5862L33.5045 48.5087C33.1056 48.794 32.828 49.0477 32.6708 49.2706C32.5137 49.4918 32.4351 49.7421 32.4351 50.0223H37.4747V51.8707H30.1049V50.9858Z" fill="#E9E9E9"/>
<path d="M45.093 51.8707H42.978V49.4415H37.8906V47.6614L42.2674 40.7017H45.093V47.6614H46.8115V49.4415H45.093V51.8707ZM40.1525 47.5008L40.2208 47.6614H42.978V43.3393L42.8004 43.3086L40.1525 47.5008Z" fill="#E9E9E9"/>
</svg>
